<svg xmlns="http://www.w3.org/2000/svg" xmlns:xlink="http://www.w3.org/1999/xlink" width="40" height="40" version="1.1" viewBox="0 0 40 40"><g id="Canvas" fill="none"><g id="CodexIconPlan40" clip-path="url(#clip0)"><g id="Group"><mask id="mask0" width="40" height="40" x="0" y="0" mask-type="alpha" maskUnits="userSpaceOnUse"><g id="Union"><path fill="#fff" d="M 1.67426 0C 0.749573 0 0 0.75 0 1.67383L 0 28.3262C 0 29.25 0.749573 30 1.67426 30L 16.7847 30C 17.5931 35.6543 22.4557 40 28.3334 40C 34.7767 40 40 34.7773 40 28.334C 40 24.8252 38.4512 21.6787 36 19.54L 36 1.67383C 36 0.75 35.2504 0 34.3257 0L 1.67426 0Z"/></g></mask><g mask="url(#mask0)"><g id="Rectangle"><path fill="#008B74" d="M 0 1.67423C 0 0.749576 0.749576 0 1.67423 0L 34.3258 0C 35.2504 0 36 0.749576 36 1.67423L 36 28.3258C 36 29.2504 35.2504 30 34.3258 30L 1.67423 30C 0.749576 30 0 29.2504 0 28.3258L 0 1.67423Z"/></g><g id="Ellipse" filter="url(#filter0_f)"><circle cx="11.667" cy="11.667" r="11.667" fill="#007E68" transform="translate(16.6667 16.667)"/></g><g id="Ellipse_2"><circle cx="11.667" cy="11.667" r="11.667" fill="#2FCCB0" transform="translate(16.6667 16.667)"/></g><g id="Intersect"><path fill="#00B294" d="M 19.3333 2.87305L 19.3333 11.6592C 19.3333 12.583 18.5837 13.333 17.6591 13.333L 0.118042 13.333C 0.0402222 12.7891 0 12.2324 0 11.667C 0 5.22363 5.22333 0 11.6667 0C 14.6014 0 17.283 1.08398 19.3333 2.87305Z" transform="translate(16.6667 16.667)"/></g><g id="Union_2"><path fill="#00B294" d="M 30 0L 22 0L 22 5L 30 5L 30 0Z" transform="translate(3 3)"/><path fill="#00B294" d="M 19 8L 11 8L 11 13L 19 13L 19 8Z" transform="translate(3 3)"/><path fill="#00B294" d="M 8 16L 0 16L 0 21L 8 21L 8 16Z" transform="translate(3 3)"/><path fill="#00B294" d="M 8 0L 0 0L 0 5L 8 5L 8 0Z" transform="translate(3 3)"/></g><g id="Union_3"><path fill="#46D5BD" d="M 8 0L 0 0L 0 5L 8 5L 8 0Z" transform="translate(14 3)"/></g><g id="Union_4" filter="url(#filter1_f)"><path fill="#007F61" d="M 8 0L 0 0L 0 5L 8 5L 8 0Z" transform="translate(3 11)"/></g><g id="Union_5"><path fill="#90FBE9" d="M 8 0L 0 0L 0 5L 8 5L 8 0Z" transform="translate(3 11)"/></g><g id="Vector (Stroke)"><path fill="#C6FDF4" fill-rule="evenodd" d="M 15.6904 2.35702L 6.17851 11.8689L 0 5.69036L 2.35702 3.33333L 6.17851 7.15482L 13.3333 0L 15.6904 2.35702Z" clip-rule="evenodd" transform="translate(20.9047 22.5713)"/></g><g id="Union_6" opacity=".25"><path fill="url(#paint0_linear)" d="M 1.67426 0C 0.749573 0 0 0.75 0 1.67383L 0 28.3262C 0 29.25 0.749573 30 1.67426 30L 16.7847 30C 17.5931 35.6543 22.4557 40 28.3334 40C 34.7767 40 40 34.7773 40 28.334C 40 24.8252 38.4512 21.6787 36 19.54L 36 1.67383C 36 0.75 35.2504 0 34.3257 0L 1.67426 0Z"/></g></g></g></g></g><defs><filter id="filter0_f" width="31.333" height="31.333" x="12.667" y="12.667" color-interpolation-filters="sRGB" filterUnits="userSpaceOnUse"><feFlood flood-opacity="0" result="BackgroundImageFix"/><feBlend in="SourceGraphic" in2="BackgroundImageFix" mode="normal" result="shape"/><feGaussianBlur result="effect1_foregroundBlur" stdDeviation="2"/></filter><filter id="filter1_f" width="16" height="13" x="-1" y="7" color-interpolation-filters="sRGB" filterUnits="userSpaceOnUse"><feFlood flood-opacity="0" result="BackgroundImageFix"/><feBlend in="SourceGraphic" in2="BackgroundImageFix" mode="normal" result="shape"/><feGaussianBlur result="effect1_foregroundBlur" stdDeviation="2"/></filter><linearGradient id="paint0_linear" x2="1" gradientTransform="matrix(0 40 -40 0 40 0)" gradientUnits="userSpaceOnUse"><stop stop-color="#fff"/><stop offset="1" stop-color="#fff" stop-opacity="0"/></linearGradient><clipPath id="clip0"><rect width="40" height="40" fill="#fff"/></clipPath></defs></svg>