<svg xmlns="http://www.w3.org/2000/svg" width="40" height="40" fill="none" viewBox="0 0 40 40"><g id="DevOpsIconArtifacts40"><mask id="mask0" width="40" height="40" x="0" y="0" mask-type="alpha" maskUnits="userSpaceOnUse"><path id="Union" fill="#fff" d="M7 1.66699C7 0.746094 7.74619 0 8.66666 0H31.3333C32.2538 0 33 0.746094 33 1.66699V20H38.3333C39.2538 20 40 20.7461 40 21.667V38.333C40 39.2539 39.2538 40 38.3333 40H1.66666C0.746185 40 0 39.2539 0 38.333V21.667C0 20.7461 0.746185 20 1.66666 20H7V1.66699Z"/></mask><g mask="url(#mask0)"><g id="Group"><path id="Rectangle 2.1" fill="#B21756" d="M0 1.66667C0 0.746192 0.746192 0 1.66667 0H18.3333C19.2538 0 20 0.746192 20 1.66667V18.3333C20 19.2538 19.2538 20 18.3333 20H1.66667C0.746192 20 0 19.2538 0 18.3333V1.66667Z" transform="translate(0 20)"/><path id="Rectangle 2.4" fill="#A61550" d="M0 0H3.66667C4.58714 0 5.33333 0.746192 5.33333 1.66667V17.5C5.33333 18.4205 4.58714 19.1667 3.66667 19.1667H0V0Z" transform="translate(14.6667 20)"/><rect id="Rectangle" width="7" height="2" fill="#8D0A3F" rx="1" transform="translate(7 23)"/></g><g id="Rectangle 2.3" filter="url(#filter0_f)"><path fill="#8C0039" d="M0 1.66667C0 0.746192 0.746192 0 1.66667 0H24.3333C25.2538 0 26 0.746192 26 1.66667V20H0V1.66667Z" transform="translate(7)"/></g><g id="Group 3"><path id="Rectangle 2.4_2" fill="#CB2E6D" d="M0 1.66667C0 0.746192 0.746192 0 1.66667 0H24.3333C25.2538 0 26 0.746192 26 1.66667V20H0V1.66667Z" transform="translate(7)"/><rect id="Rectangle_2" width="6" height="2" fill="#B01C57" rx="1" transform="translate(13 4)"/><path id="Rectangle 2" fill="#BD2461" d="M0 0H5.33333C6.25381 0 7 0.746192 7 1.66667V20H0V0Z" transform="translate(26)"/></g><g id="Rectangle 2_2" filter="url(#filter1_f)" opacity=".5"><path fill="#75002F" d="M0 0H25.3333C26.2538 0 27 0.746192 27 1.66667V18.3333C27 19.2538 26.2538 20 25.3333 20H1.66667C0.746192 20 0 19.2538 0 18.3333V0Z" transform="translate(13 20)"/></g><g id="Group 2"><path id="Rectangle 2.4_3" fill="#EF74A6" d="M0 0H25.3333C26.2538 0 27 0.746192 27 1.66667V18.3333C27 19.2538 26.2538 20 25.3333 20H1.66667C0.746192 20 0 19.2538 0 18.3333V0Z" transform="translate(13 20)"/><path id="Intersect" fill="url(#paint0_linear)" d="M1.85714 20H13V0H0V18.2609C0 19.2213 0.831472 20 1.85714 20Z" transform="translate(13 20)"/><rect id="Rectangle_3" width="6" height="2" fill="#C82F6D" rx="1" transform="translate(20 23)"/><path id="Rectangle 2.3_2" fill="#E66398" d="M0 0H5.33333C6.25381 0 7 0.746192 7 1.66667V18.3333C7 19.2538 6.25381 20 5.33333 20H0V0Z" transform="translate(33 20)"/></g><g id="Union_2"><path fill="#FC92BE" d="M10 0H0V1.99967H10V0Z" transform="translate(16 32)"/><path fill="#FC92BE" d="M6 3H0V5H6V3Z" transform="translate(16 32)"/></g><path id="Union_3" fill="url(#paint1_linear)" d="M7 1.66699C7 0.746094 7.74619 0 8.66666 0H31.3333C32.2538 0 33 0.746094 33 1.66699V20H38.3333C39.2538 20 40 20.7461 40 21.667V38.333C40 39.2539 39.2538 40 38.3333 40H1.66666C0.746185 40 0 39.2539 0 38.333V21.667C0 20.7461 0.746185 20 1.66666 20H7V1.66699Z" opacity=".2"/></g></g><defs><filter id="filter0_f" width="34" height="28" x="3" y="-4" color-interpolation-filters="sRGB" filterUnits="userSpaceOnUse"><feFlood flood-opacity="0" result="BackgroundImageFix"/><feBlend in="SourceGraphic" in2="BackgroundImageFix" mode="normal" result="shape"/><feGaussianBlur result="effect1_foregroundBlur" stdDeviation="2"/></filter><filter id="filter1_f" width="35" height="28" x="9" y="16" color-interpolation-filters="sRGB" filterUnits="userSpaceOnUse"><feFlood flood-opacity="0" result="BackgroundImageFix"/><feBlend in="SourceGraphic" in2="BackgroundImageFix" mode="normal" result="shape"/><feGaussianBlur result="effect1_foregroundBlur" stdDeviation="2"/></filter><linearGradient id="paint0_linear" x2="1" gradientTransform="translate(13) scale(13 20) rotate(90)" gradientUnits="userSpaceOnUse"><stop stop-color="#E66398"/><stop offset="1" stop-color="#EF74A6"/></linearGradient><linearGradient id="paint1_linear" x2="1" gradientTransform="translate(40) scale(40) rotate(90)" gradientUnits="userSpaceOnUse"><stop stop-color="#fff"/><stop offset="1" stop-color="#fff" stop-opacity="0"/></linearGradient></defs></svg>