<svg xmlns="http://www.w3.org/2000/svg" width="96" height="96" fill="none" viewBox="0 0 96 96"><g id="DevOpsIconPipelines96"><mask id="mask0" width="96" height="96" x="0" y="0" mask-type="alpha" maskUnits="userSpaceOnUse"><g id="Union"><path fill="#fff" d="M14 64.416L18.8301 59.251L24.8323 65.2529L19.9519 70.1338L25.8659 76.0479L30.7462 71.168L36.7895 77.2109L32 82L46 96H68C70.2091 96 72 94.209 72 92V60.0225L92.442 46.375C94.665 44.8916 95.9999 42.3945 95.9999 39.7217V4C95.9999 1.79102 94.2091 0 91.9999 0H56.2781C53.6052 0 51.1088 1.33496 49.6246 3.55762L35.9772 24H4C1.79083 24 0 25.791 0 28V50L14 64.416Z"/><path fill="#fff" d="M8 88V72H0V96H24V88H8Z"/></g></mask><g mask="url(#mask0)"><path id="Flame" fill="#91B0F2" fill-rule="evenodd" d="M0 0L7.99999 2.97878e-08V16.0001H24V24H0V0Z" clip-rule="evenodd" transform="translate(0 72)"/><path id="Wings" fill="#0F46BD" d="M0 4V26L14 40.4156L20 34L38 52L32 58L46 72H68C70.2091 72 72 70.2091 72 68V36L36 0H4C1.79086 0 0 1.79086 0 4Z" transform="translate(0 24)"/><g id="Body" filter="url(#filter0_f)"><path fill="#062AA9" fill-rule="evenodd" d="M0 55.4213L37 0H80.9999V44.0002L25.5789 81.0004L0 55.4213Z" clip-rule="evenodd" transform="translate(15)"/></g><path id="Body_2" fill="#2560E0" fill-rule="evenodd" d="M2.32029 57.7416C0.971342 56.3927 0.762734 54.2789 1.82198 52.6922L34.6246 3.55804C36.1087 1.33497 38.6051 0 41.2781 0H76.9999C79.209 0 80.9999 1.79086 80.9999 4V39.7222C80.9999 42.3951 79.6649 44.8915 77.4419 46.3756L28.308 79.1784C26.7214 80.2377 24.6076 80.0291 23.2586 78.6801L2.32029 57.7416Z" clip-rule="evenodd" transform="translate(15)"/><g id="Wing shadow" filter="url(#filter1_f)"><path fill="#0A44C2" fill-rule="evenodd" d="M0 30.5401L30.54 0L36.454 5.91397L5.91399 36.4541L0 30.5401Z" clip-rule="evenodd" transform="translate(19.9519 39.5938)"/></g><path id="Wing" fill="#729AF2" fill-rule="evenodd" d="M0 30.5401L30.54 0L36.454 5.91397L5.91399 36.4541L0 30.5401Z" clip-rule="evenodd" transform="translate(19.9519 39.5938)"/><path id="Intersect" fill="#4C80F0" d="M5.914 31.5732L0 25.6592L25.6595 0L31.5734 5.91406L5.914 31.5732Z" transform="translate(24.8325 39.5938)"/><g id="Window shadow" filter="url(#filter2_f)"><path fill="#0A44C2" d="M12 24.0001C18.6274 24.0001 24 18.6275 24 12.0001C24 5.37261 18.6274 0 12 0C5.37258 0 0 5.37261 0 12.0001C0 18.6275 5.37258 24.0001 12 24.0001Z" transform="translate(58 14)"/></g><path id="Window" fill="#91B0F2" d="M12 24.0001C18.6274 24.0001 24 18.6275 24 12.0001C24 5.37261 18.6274 0 12 0C5.37258 0 0 5.37261 0 12.0001C0 18.6275 5.37258 24.0001 12 24.0001Z" transform="translate(58 14)"/><g id="Union_2" opacity=".2"><path fill="url(#paint0_linear)" d="M14 64.416L18.8301 59.251L24.8323 65.2529L19.9519 70.1338L25.8659 76.0479L30.7462 71.168L36.7895 77.2109L32 82L46 96H68C70.2091 96 72 94.209 72 92V60.0225L92.442 46.375C94.665 44.8916 95.9999 42.3945 95.9999 39.7217V4C95.9999 1.79102 94.2091 0 91.9999 0H56.2781C53.6052 0 51.1088 1.33496 49.6246 3.55762L35.9772 24H4C1.79083 24 0 25.791 0 28V50L14 64.416Z"/><path fill="url(#paint1_linear)" d="M8 88V72H0V96H24V88H8Z"/></g></g></g><defs><filter id="filter0_f" width="97" height="97" x="7" y="-8" color-interpolation-filters="sRGB" filterUnits="userSpaceOnUse"><feFlood flood-opacity="0" result="BackgroundImageFix"/><feBlend in="SourceGraphic" in2="BackgroundImageFix" mode="normal" result="shape"/><feGaussianBlur result="effect1_foregroundBlur" stdDeviation="4"/></filter><filter id="filter1_f" width="63.768" height="63.768" x="6.295" y="25.936" color-interpolation-filters="sRGB" filterUnits="userSpaceOnUse"><feFlood flood-opacity="0" result="BackgroundImageFix"/><feBlend in="SourceGraphic" in2="BackgroundImageFix" mode="normal" result="shape"/><feGaussianBlur result="effect1_foregroundBlur" stdDeviation="4"/></filter><filter id="filter2_f" width="40" height="40" x="50" y="6" color-interpolation-filters="sRGB" filterUnits="userSpaceOnUse"><feFlood flood-opacity="0" result="BackgroundImageFix"/><feBlend in="SourceGraphic" in2="BackgroundImageFix" mode="normal" result="shape"/><feGaussianBlur result="effect1_foregroundBlur" stdDeviation="4"/></filter><linearGradient id="paint0_linear" x2="1" gradientTransform="translate(95.9999) scale(95.9999) rotate(90)" gradientUnits="userSpaceOnUse"><stop stop-color="#fff"/><stop offset="1" stop-color="#fff" stop-opacity="0"/></linearGradient><linearGradient id="paint1_linear" x2="1" gradientTransform="translate(95.9999) scale(95.9999) rotate(90)" gradientUnits="userSpaceOnUse"><stop stop-color="#fff"/><stop offset="1" stop-color="#fff" stop-opacity="0"/></linearGradient></defs></svg>