<svg xmlns="http://www.w3.org/2000/svg" width="96" height="96" fill="none" viewBox="0 0 96 96"><g id="DevOpsIconOverview96"><mask id="mask0" width="96" height="88" x="0" y="4" mask-type="alpha" maskUnits="userSpaceOnUse"><path id="Union" fill="#fff" d="M20 0C17.7909 0 16 1.79102 16 4V28H4C1.79086 28 0 29.791 0 32V80C0 84.418 3.58172 88 8 88H88C92.4183 88 96 84.4512 96 80.0322V4C96 1.79102 94.2091 0 92 0H20Z" transform="translate(0 4)"/></mask><g mask="url(#mask0)"><g id="Group"><path id="Rectangle 2.1" fill="#005BA4" d="M0 4C0 1.79086 1.79086 0 4 0H16V52C16 56.4183 12.4183 60 8 60C3.58172 60 0 56.4183 0 52V4Z" transform="translate(0 32)"/><g id="Subtract" filter="url(#filter0_f)"><path fill="#023F9B" d="M8 4C8 1.79102 9.79086 0 12 0H84C86.2091 0 88 1.79102 88 4V80.021C88 84.4393 84.4183 88 80 88H0C4.41828 88 8 84.418 8 80V4Z" transform="translate(8 4)"/></g><path id="Subtract_2" fill="#0078D7" d="M8 4C8 1.79102 9.79086 0 12 0H84C86.2091 0 88 1.79102 88 4V80.021C88 84.4393 84.4183 88 80 88H0C4.41828 88 8 84.418 8 80V4Z" transform="translate(8 4)"/><path id="Subtract_3" fill="#006CC9" d="M8 52C8 56.418 4.41828 60 0 60H80C75.5817 60 72 56.418 72 52V4C72 1.5 70.2091 0 68 0H8V52Z" transform="translate(8 32)"/><g id="Group 6"><rect id="Rectangle" width="48" height="4" fill="#47A4ED" transform="translate(32 66)"/><rect id="Rectangle_2" width="24" height="4" fill="#47A4ED" transform="translate(32 74)"/><g id="Group 5"><path id="Rectangle_3" fill="#83C7FC" d="M0 2C0 0.895431 0.895431 0 2 0H16V20H0V2Z" transform="translate(48 32)"/><path id="Rectangle_4" fill="#83C7FC" d="M0 2C0 0.895431 0.895431 0 2 0H16V12H2C0.895431 12 0 11.1046 0 10V2Z" transform="translate(32 40)"/><g id="Rectangle_5" filter="url(#filter1_f)" opacity=".6"><path fill="#0049B6" d="M0 2C0 0.895431 0.895431 0 2 0H14C15.1046 0 16 0.895431 16 2V30C16 31.1046 15.1046 32 14 32H0V2Z" transform="translate(64 20)"/></g><path id="Rectangle_6" fill="#AEDAFC" d="M0 2C0 0.895431 0.895431 0 2 0H14C15.1046 0 16 0.895431 16 2V30C16 31.1046 15.1046 32 14 32H0V2Z" transform="translate(64 20)"/><path id="Rectangle_7" fill="#9BD3FF" d="M0 0H16V18C16 19.1046 15.1046 20 14 20H0V0Z" transform="translate(64 32)"/></g></g><path id="Union_2" fill="url(#paint0_linear)" d="M20 0C17.7909 0 16 1.79102 16 4V28H4C1.79086 28 0 29.791 0 32V80C0 84.418 3.58172 88 8 88H88C92.4183 88 96 84.4512 96 80.0322V4C96 1.79102 94.2091 0 92 0H20Z" opacity=".25" transform="translate(0 4)"/></g></g></g><defs><filter id="filter0_f" width="104" height="104" x="0" y="-4" color-interpolation-filters="sRGB" filterUnits="userSpaceOnUse"><feFlood flood-opacity="0" result="BackgroundImageFix"/><feBlend in="SourceGraphic" in2="BackgroundImageFix" mode="normal" result="shape"/><feGaussianBlur result="effect1_foregroundBlur" stdDeviation="4"/></filter><filter id="filter1_f" width="32" height="48" x="56" y="12" color-interpolation-filters="sRGB" filterUnits="userSpaceOnUse"><feFlood flood-opacity="0" result="BackgroundImageFix"/><feBlend in="SourceGraphic" in2="BackgroundImageFix" mode="normal" result="shape"/><feGaussianBlur result="effect1_foregroundBlur" stdDeviation="4"/></filter><linearGradient id="paint0_linear" x2="1" gradientTransform="translate(96 6) scale(96 82) rotate(90)" gradientUnits="userSpaceOnUse"><stop stop-color="#fff"/><stop offset="1" stop-color="#fff" stop-opacity="0"/></linearGradient></defs></svg>