<svg xmlns="http://www.w3.org/2000/svg" viewBox="0 0 64 64"><defs><style>.cls-1{fill:#fff}.cls-2,.cls-3{fill:#e5e5e5;fill-rule:evenodd}.cls-3{fill:#2bc7f4}.cls-4,.cls-5{fill:none}.cls-4{stroke:#556a8a;stroke-miterlimit:10;stroke-width:2px}</style></defs><title>i_account-management</title><g id="ICONS-64x"><rect width="43" height="62" x="10" y="1" class="cls-1" rx="2" ry="2"/><path d="M53,52v9a2,2,0,0,1-2,2H12a2,2,0,0,1-2-2V52Z" class="cls-2"/><path d="M53,3V8H10V3a2,2,0,0,1,2-2H51A2,2,0,0,1,53,3Z" class="cls-3"/><rect width="43" height="62" x="10" y="1" class="cls-4" rx="2" ry="2"/><line x1="10" x2="53" y1="8" y2="8" class="cls-4"/><line x1="10" x2="53" y1="52" y2="52" class="cls-4"/><g><circle cx="31.5" cy="23" r="8" class="cls-4"/><path d="M19,43A12.26,12.26,0,0,1,31.5,31,12.26,12.26,0,0,1,44,43" class="cls-4"/></g><rect width="64" height="64" class="cls-5"/></g></svg>