<svg xmlns="http://www.w3.org/2000/svg" id="ICONS-64x" viewBox="0 0 64 64"><defs><style>.cls-1{fill:#2bc7f4}.cls-2{fill:#556a8a}.cls-3{fill:#fff}.cls-4{fill:#e5e5e5}.cls-5{fill:none;stroke:#556a8a;stroke-miterlimit:10;stroke-width:2px}</style></defs><title>i_alert</title><circle cx="32" cy="55" r="9" class="cls-1"/><path d="M32,0a5,5,0,1,0,5,5A5,5,0,0,0,32,0Zm0,8a3,3,0,1,1,3-3A3,3,0,0,1,32,8Z" class="cls-2"/><path d="M60,50.38V55H4V50.38H5a8.34,8.34,0,0,0,8-8.43V24.3C13,13.64,20.62,5,30.75,5h2.5C43.38,5,51,13.64,51,24.3V41.95a8.34,8.34,0,0,0,8,8.43Z" class="cls-3"/><path d="M60,50.42v4.92H33V5h.25C43.38,5,51,13.68,51,24.34V42a8.34,8.34,0,0,0,8,8.43Z" class="cls-4"/><path d="M60,50.38V55H4V50.38H5a8.34,8.34,0,0,0,8-8.43V24.3C13,13.64,20.62,5,30.75,5h2.5C43.38,5,51,13.64,51,24.3V41.95a8.34,8.34,0,0,0,8,8.43Z" class="cls-5"/></svg>