<svg xmlns="http://www.w3.org/2000/svg" width="64" height="64" fill="none" viewBox="0 0 64 64"><rect width="64" height="64" fill="#000" fill-opacity="0"/><path fill="#556A8A" d="M0 62H64V64H0V62Z"/><rect width="12" height="16" x="2" y="46" fill="#2BC7F4"/><rect width="12" height="32" x="18" y="30" fill="#2BC7F4"/><rect width="12" height="24" x="34" y="38" fill="#2BC7F4"/><rect width="12" height="40" x="50" y="22" fill="#2BC7F4"/><path fill="#55D2F6" d="M14 46V55L5 46H14Z"/><path fill="#55D2F6" d="M30 30V39L21 30H30Z"/><path fill="#55D2F6" d="M46 38V47L37 38H46Z"/><path fill="#55D2F6" d="M62 22V31L53 22H62Z"/><path stroke="#556A8A" stroke-width="2" d="M8 29L24 13L40 21L56 5"/><circle cx="56" cy="5" r="4" fill="#E5E5E5" stroke="#556A8A" stroke-width="2"/><circle cx="40" cy="21" r="4" fill="#E5E5E5" stroke="#556A8A" stroke-width="2"/><circle cx="24" cy="13" r="4" fill="#E5E5E5" stroke="#556A8A" stroke-width="2"/><circle cx="8" cy="29" r="4" fill="#E5E5E5" stroke="#556A8A" stroke-width="2"/></svg>