<svg xmlns="http://www.w3.org/2000/svg" id="ICONS-64x" viewBox="0 0 64 64"><defs><style>.cls-1,.cls-3{fill:none}.cls-1,.cls-2,.cls-3{stroke:#556a8a;stroke-miterlimit:10;stroke-width:2px}.cls-1{stroke-linecap:round}.cls-2{fill:#fff}.cls-4{fill:#2bc7f4}.cls-5{fill:#55d2f6}.cls-6{fill:#556a8a}</style></defs><title>i_build</title><polygon points="60.07 14 4 14 19.77 4 56 10 60.07 13.76 60.07 14" class="cls-1"/><polygon points="23 2 27 61 13 61 18 2 23 2" class="cls-2"/><line x1="57" x2="57" y1="13.16" y2="32.56" class="cls-3"/><g><line x1="13.5" x2="25.8" y1="61.5" y2="49.2" class="cls-3"/><line x1="26.5" x2="14.34" y1="61.5" y2="49.34" class="cls-3"/></g><g><line x1="14.48" x2="25.35" y1="49.02" y2="38.15" class="cls-3"/><line x1="25.22" x2="15.15" y1="48.72" y2="38.65" class="cls-3"/></g><g><line x1="14.9" x2="24.45" y1="37.1" y2="27.55" class="cls-3"/><line x1="25.53" x2="15.72" y1="37.53" y2="27.72" class="cls-3"/></g><g><line x1="16.03" x2="24.18" y1="24.96" y2="16.8" class="cls-3"/><line x1="24.42" x2="16.68" y1="25.41" y2="17.66" class="cls-3"/></g><g><line x1="17" x2="23.4" y1="15" y2="8.6" class="cls-3"/><line x1="23.57" x2="17.67" y1="14.73" y2="8.83" class="cls-3"/></g><path d="M64,34v7a1.89,1.89,0,0,1-.18.82A2,2,0,0,1,62,43H52a2,2,0,0,1-2-2V34a2,2,0,0,1,2-2H62A2,2,0,0,1,64,34Z" class="cls-4"/><path d="M64,34v7a1.89,1.89,0,0,1-.18.82L54,32h8A2,2,0,0,1,64,34Z" class="cls-5"/><rect width="23.5" height="4" x="8" y="60" class="cls-6" rx="2" ry="2"/></svg>