<svg xmlns="http://www.w3.org/2000/svg" viewBox="0 0 64 64"><defs><style>.cls-1{fill:#2bc7f4}.cls-2{fill:#55d2f6}.cls-3,.cls-8{fill:none}.cls-3,.cls-6{stroke:#556a8a;stroke-miterlimit:10;stroke-width:2px}.cls-4,.cls-6{fill:#fff}.cls-5{fill:#e5e5e5}.cls-7{fill:#556a8a}</style></defs><title>i_delivery</title><g id="ICONS-64x"><g><rect width="42" height="35" x="1" y="12" class="cls-1"/><polygon points="43 12 43 35 20 12 43 12" class="cls-2"/><rect width="42" height="35" x="1" y="12" class="cls-3"/><polygon points="63 31.88 63 47 43 47 43 17 54.32 17 63 31.88" class="cls-4"/><polygon points="63 31.88 63 32 43 32 43 17 54.32 17 63 31.88" class="cls-5"/><polygon points="43 17 54.32 17 63 31.88 63 46.91 43 46.91 43 17" class="cls-3"/><circle cx="14.56" cy="46.64" r="7.44" class="cls-6"/><circle cx="42.56" cy="46.64" r="7.44" class="cls-6"/><circle cx="14.56" cy="46.64" r="2.48" class="cls-7"/><circle cx="42.56" cy="46.64" r="2.48" class="cls-7"/></g><rect width="64" height="64" class="cls-8"/><rect width="64" height="64" class="cls-8"/></g></svg>