<svg xmlns="http://www.w3.org/2000/svg" viewBox="0 0 64 64"><defs><style>.cls-1,.cls-6{fill:#fff}.cls-2{fill:#566a89}.cls-3{fill:#00bcf2}.cls-4{fill:#e5e5e5}.cls-5,.cls-7,.cls-8{fill:none}.cls-5,.cls-6{stroke:#556a8a}.cls-5,.cls-6,.cls-7{stroke-miterlimit:10;stroke-width:2px}.cls-7{stroke:#566a89}</style></defs><title>i_kaban</title><g id="ICONS-64x"><rect width="62" height="49" x="1" y="8" class="cls-1" rx="2" ry="2"/><g><rect width="9" height="9" x="6" y="22" class="cls-2"/><rect width="9" height="9" x="18" y="22" class="cls-2"/><rect width="9" height="9" x="6" y="33" class="cls-2"/><rect width="9" height="9" x="18" y="33" class="cls-2"/><rect width="9" height="9" x="36" y="22" class="cls-3"/><rect width="9" height="9" x="36" y="33" class="cls-3"/><rect width="9" height="9" x="48" y="33" class="cls-3"/><rect width="9" height="9" x="6" y="44" class="cls-2"/><rect width="9" height="9" x="18" y="44" class="cls-2"/></g><rect width="60" height="10.91" x="2" y="8" class="cls-4"/><rect width="62" height="49" x="1" y="8" class="cls-5" rx="2" ry="2"/><line x1="1" x2="64" y1="18" y2="18" class="cls-6"/><line x1="32" x2="32" y1="22" y2="54" class="cls-7"/><rect width="64" height="64" class="cls-8"/></g></svg>