<svg xmlns="http://www.w3.org/2000/svg" viewBox="0 0 64 64"><defs><style>.cls-1{fill:#e5e5e5}.cls-2{fill:#f2f2f2}.cls-3,.cls-6{fill:none}.cls-3{stroke:#556a8a;stroke-miterlimit:10;stroke-width:2px}.cls-4{fill:#fff}.cls-5{fill:#556a8a}</style></defs><title>i_pull-request</title><g id="ICONS-64x"><circle cx="14" cy="52" r="10" class="cls-1"/><path d="M24,52A10,10,0,0,1,14,62V42A10,10,0,0,1,24,52Z" class="cls-2"/><circle cx="14" cy="52" r="10" class="cls-3"/><circle cx="14" cy="13" r="10" class="cls-4"/><circle cx="51" cy="52" r="10" class="cls-4"/><path d="M24,13A10,10,0,0,1,14,23V3A10,10,0,0,1,24,13Z" class="cls-2"/><circle cx="14" cy="13" r="10" class="cls-3"/><path d="M41,52A10,10,0,0,0,51,62V42A10,10,0,0,0,41,52Z" class="cls-2"/><circle cx="51" cy="52" r="10" class="cls-3"/><rect width="2" height="21" x="13" y="22" class="cls-5"/><path d="M51,42V21a9.79,9.79,0,0,0-9.5-10H32" class="cls-3"/><polyline points="40 1.89 31 11 40 19.94" class="cls-3"/><rect width="63.88" height="64" x=".06" class="cls-6"/></g></svg>