<svg xmlns="http://www.w3.org/2000/svg" id="ICONS-64x" viewBox="0 0 64 64"><defs><style>.cls-1{fill:#fff;stroke:#556a8a;stroke-miterlimit:10;stroke-width:2px}.cls-2{fill:#e5e5e5}.cls-3{fill:#2bc7f4}.cls-4{fill:none}.cls-5{fill:#556a8a}</style></defs><title>i_server</title><rect width="36" height="62" x="12" y="1" class="cls-1"/><g><rect width="18" height="60" x="29" y="2" class="cls-2"/><rect width="16" height="2" x="13" y="17" class="cls-3"/><polygon points="37.23 7.14 12.63 7.14 12.63 9.13 37.23 9.13 37.23 7.14 37.23 7.14" class="cls-4"/><polyline points="37.23 7.14 12.63 7.14 12.63 9.13 37.23 9.13 37.23 7.14" class="cls-4"/><rect width="16" height="2" x="13" y="12" class="cls-3"/><rect width="16" height="2" x="13" y="7" class="cls-3"/><rect width="18" height="2" x="29" y="17" class="cls-5"/><rect width="18" height="2" x="29" y="12" class="cls-5"/><rect width="18" height="2" x="29" y="7" class="cls-5"/></g><rect width="2" height="2" x="13" y="7" class="cls-5"/><rect width="2" height="2" x="13" y="12" class="cls-5"/><rect width="2" height="2" x="13" y="17" class="cls-5"/></svg>