<svg xmlns="http://www.w3.org/2000/svg" id="Icons" viewBox="0 0 64 64"><defs><style>.cls-1{fill:#ecb32d}.cls-2{fill:#63c1a0}.cls-3{fill:#e01a59}.cls-4{fill:#331433}.cls-5{fill:#d62027}.cls-6{fill:#89d3df}.cls-7{fill:#258b74}.cls-8{fill:#819c3c}</style></defs><title>logo-slack</title><g><path d="M41.33,4.43A5.62,5.62,0,1,0,30.64,7.89L45.15,52.53A5.6,5.6,0,0,0,52,56a5.51,5.51,0,0,0,3.82-6.92C55.8,49,41.33,4.43,41.33,4.43Z" class="cls-1"/><path d="M18.86,11.72A5.62,5.62,0,0,0,8.16,15.18L22.68,59.82a5.6,5.6,0,0,0,6.82,3.46,5.51,5.51,0,0,0,3.82-6.92C33.32,56.25,18.86,11.72,18.86,11.72Z" class="cls-2"/><path d="M59.62,41.37a5.62,5.62,0,0,0-3.46-10.69L11.47,45.25A5.6,5.6,0,0,0,8,52.07a5.51,5.51,0,0,0,6.92,3.82C15,55.89,59.62,41.37,59.62,41.37Z" class="cls-3"/><path d="M20.77,54c2.89-.93,6.66-2.17,10.69-3.46-.93-2.89-2.17-6.66-3.46-10.69L17.31,43.34Z" class="cls-4"/><path d="M43.29,46.69c4-1.29,7.8-2.53,10.69-3.46-.93-2.89-2.17-6.66-3.46-10.69L39.83,36Z" class="cls-5"/><path d="M52.28,18.9A5.62,5.62,0,0,0,48.82,8.2L4.18,22.72A5.6,5.6,0,0,0,.72,29.54a5.51,5.51,0,0,0,6.92,3.82C7.75,33.36,52.28,18.9,52.28,18.9Z" class="cls-6"/><path d="M13.48,31.5c2.89-.93,6.66-2.17,10.69-3.46-1.29-4-2.53-7.8-3.46-10.69L10,20.81Z" class="cls-7"/><path d="M36,24.22c4-1.29,7.8-2.53,10.69-3.46-1.29-4-2.53-7.8-3.46-10.69L32.5,13.53Z" class="cls-8"/></g></svg>