<svg xmlns="http://www.w3.org/2000/svg" viewBox="0 0 636 636"><title>blog-package-upstream-diagram-1</title><path fill="#cbe247" d="M343,33H606a11,11,0,0,1,11,11V297a0,0,0,0,1,0,0H354a11,11,0,0,1-11-11V33A0,0,0,0,1,343,33Z"/><path fill="#b0cdda" d="M17,33H280a11,11,0,0,1,11,11V297a0,0,0,0,1,0,0H28a11,11,0,0,1-11-11V33A0,0,0,0,1,17,33Z"/><path fill="#cadee6" d="M291,71.333V44a11,11,0,0,0-11-11H17V71.333Z"/><path fill="#e6f26d" d="M617,71.333V44a11,11,0,0,0-11-11H343V71.333Z"/><text font-family="SegoeUI, Segoe UI" font-size="24" transform="translate(106.906 59)"><tspan letter-spacing="-.034em">F</tspan><tspan x="10.898" y="0">abrikam</tspan></text><text font-family="SegoeUI, Segoe UI" font-size="24" transform="translate(434.527 59)">Contoso</text><text font-family="SegoeUI, Segoe UI" font-size="16" transform="translate(145.212 140)">Widgets</text><rect width="64.999" height="55.584" x="117.124" y="155.823" fill="#fff"/><polygon fill="#c2c2c2" points="182.777 160.602 115.264 160.602 120.753 166.515 182.777 166.515 182.777 160.602"/><rect width="10.287" height="55.584" x="182.122" y="155.823" fill="#939393"/><rect width="75.832" height="14.268" x="111.707" y="148.333" fill="#fff"/><rect width="10.287" height="14.268" x="186.237" y="148.333" fill="#939393"/><text font-family="SegoeUI, Segoe UI" font-size="16" transform="translate(133.594 184)">1.0.0<tspan x="0" y="19.2">2.0.0</tspan></text><path fill="#004880" d="M119.356,114.647a8.931,8.931,0,0,0-8.949,8.954v9.679a8.932,8.932,0,0,0,8.949,8.955h9.673a8.933,8.933,0,0,0,8.95-8.955V123.6a8.932,8.932,0,0,0-8.95-8.954Zm-1.9,4.7a3.347,3.347,0,0,1,0,6.694h0a3.347,3.347,0,0,1,0-6.694Zm10.667,8.141a5.789,5.789,0,1,1-5.786,5.789,5.788,5.788,0,0,1,5.786-5.789ZM108.6,110.667a3.166,3.166,0,1,1-3.165,3.165,3.164,3.164,0,0,1,3.165-3.165Z"/><text font-family="SegoeUI, Segoe UI" font-size="16" transform="translate(471.318 140)">Gizmos</text><rect width="64.999" height="55.584" x="443.124" y="155.823" fill="#fff"/><polygon fill="#c2c2c2" points="508.777 160.602 441.264 160.602 446.753 166.515 508.777 166.515 508.777 160.602"/><rect width="10.287" height="55.584" x="508.122" y="155.823" fill="#939393"/><rect width="75.832" height="14.268" x="437.707" y="148.333" fill="#fff"/><rect width="10.287" height="14.268" x="512.237" y="148.333" fill="#939393"/><text font-family="SegoeUI, Segoe UI" font-size="16" transform="translate(459.594 184)">1.0.0<tspan x="0" y="19.2">3.0.0</tspan></text><path fill="#004880" d="M445.356,114.647a8.931,8.931,0,0,0-8.949,8.954v9.679a8.932,8.932,0,0,0,8.949,8.955h9.673a8.933,8.933,0,0,0,8.95-8.955V123.6a8.932,8.932,0,0,0-8.95-8.954Zm-1.9,4.7a3.347,3.347,0,0,1,0,6.694h0a3.347,3.347,0,0,1,0-6.694Zm10.667,8.141a5.789,5.789,0,1,1-5.786,5.789,5.788,5.788,0,0,1,5.786-5.789ZM434.6,110.667a3.166,3.166,0,1,1-3.165,3.165,3.164,3.164,0,0,1,3.165-3.165Z"/><path fill="#b4a0ff" d="M180,347H443a11,11,0,0,1,11,11V610a0,0,0,0,1,0,0H191a11,11,0,0,1-11-11V347A0,0,0,0,1,180,347Z"/><path fill="#c7b8ff" d="M454,386.444V358a11,11,0,0,0-11-11H180v39.444Z"/><text font-family="SegoeUI, Segoe UI" font-size="24" transform="translate(229.074 373)">Adventure<tspan x="109.852" y="0" letter-spacing="-.039em">W</tspan><tspan x="131.332" y="0">orks</tspan></text><text font-family="SegoeUI, Segoe UI" font-size="16" transform="translate(249.064 459)">Gadgets</text><rect width="64.999" height="55.584" x="221.124" y="474.823" fill="#fff"/><polygon fill="#c2c2c2" points="286.777 479.602 219.264 479.602 224.753 485.515 286.777 485.515 286.777 479.602"/><rect width="10.287" height="55.584" x="286.122" y="474.823" fill="#737373"/><rect width="75.832" height="14.268" x="215.707" y="467.333" fill="#fff"/><rect width="10.287" height="14.268" x="290.237" y="467.333" fill="#737373"/><text font-family="SegoeUI, Segoe UI" font-size="16" transform="translate(237.594 503)">1.0.0<tspan x="0" y="19.2">2.0.0</tspan></text><path fill="#004880" d="M223.356,433.647a8.931,8.931,0,0,0-8.949,8.954v9.679a8.932,8.932,0,0,0,8.949,8.955h9.673a8.933,8.933,0,0,0,8.95-8.955V442.6a8.932,8.932,0,0,0-8.95-8.954Zm-1.9,4.7a3.347,3.347,0,0,1,0,6.694h0a3.347,3.347,0,0,1,0-6.694Zm10.667,8.141a5.789,5.789,0,1,1-5.786,5.789,5.788,5.788,0,0,1,5.786-5.789ZM212.6,429.667a3.166,3.166,0,1,1-3.165,3.165,3.164,3.164,0,0,1,3.165-3.165Z"/><text font-family="SegoeUI, Segoe UI" font-size="16" transform="translate(374.044 459)">Things</text><rect width="64.999" height="55.584" x="344.124" y="474.823" fill="#fff"/><polygon fill="#c2c2c2" points="409.777 479.602 342.264 479.602 347.753 485.515 409.777 485.515 409.777 479.602"/><rect width="10.287" height="55.584" x="409.122" y="474.823" fill="#737373"/><rect width="75.832" height="14.268" x="338.707" y="467.333" fill="#fff"/><rect width="10.287" height="14.268" x="413.237" y="467.333" fill="#737373"/><text font-family="SegoeUI, Segoe UI" font-size="16" transform="translate(360.594 503)">1.0.0</text><path fill="#004880" d="M346.356,433.647a8.931,8.931,0,0,0-8.949,8.954v9.679a8.932,8.932,0,0,0,8.949,8.955h9.673a8.933,8.933,0,0,0,8.95-8.955V442.6a8.932,8.932,0,0,0-8.95-8.954Zm-1.9,4.7a3.347,3.347,0,0,1,0,6.694h0a3.347,3.347,0,0,1,0-6.694Zm10.667,8.141a5.789,5.789,0,1,1-5.786,5.789,5.788,5.788,0,0,1,5.786-5.789ZM335.6,429.667a3.166,3.166,0,1,1-3.165,3.165,3.164,3.164,0,0,1,3.165-3.165Z"/><path fill="#cbe247" d="M343,33H606a11,11,0,0,1,11,11V297a0,0,0,0,1,0,0H354a11,11,0,0,1-11-11V33A0,0,0,0,1,343,33Z"/><path fill="#b0cdda" d="M17,33H280a11,11,0,0,1,11,11V297a0,0,0,0,1,0,0H28a11,11,0,0,1-11-11V33A0,0,0,0,1,17,33Z"/><path fill="#cadee6" d="M291,71.333V44a11,11,0,0,0-11-11H17V71.333Z"/><path fill="#e6f26d" d="M617,71.333V44a11,11,0,0,0-11-11H343V71.333Z"/><text font-family="SegoeUI, Segoe UI" font-size="24" transform="translate(106.906 59)"><tspan letter-spacing="-.034em">F</tspan><tspan x="10.898" y="0">abrikam</tspan></text><text font-family="SegoeUI, Segoe UI" font-size="24" transform="translate(434.527 59)">Contoso</text><text font-family="SegoeUI, Segoe UI" font-size="16" transform="translate(145.212 140)">Widgets</text><rect width="64.999" height="55.584" x="117.124" y="155.823" fill="#fff"/><polygon fill="#c2c2c2" points="182.777 160.602 115.264 160.602 120.753 166.515 182.777 166.515 182.777 160.602"/><rect width="10.287" height="55.584" x="182.122" y="155.823" fill="#939393"/><rect width="75.832" height="14.268" x="111.707" y="148.333" fill="#fff"/><rect width="10.287" height="14.268" x="186.237" y="148.333" fill="#939393"/><text font-family="SegoeUI, Segoe UI" font-size="16" transform="translate(133.594 184)">1.0.0<tspan x="0" y="19.2">2.0.0</tspan></text><path fill="#004880" d="M119.356,114.647a8.931,8.931,0,0,0-8.949,8.954v9.679a8.932,8.932,0,0,0,8.949,8.955h9.673a8.933,8.933,0,0,0,8.95-8.955V123.6a8.932,8.932,0,0,0-8.95-8.954Zm-1.9,4.7a3.347,3.347,0,0,1,0,6.694h0a3.347,3.347,0,0,1,0-6.694Zm10.667,8.141a5.789,5.789,0,1,1-5.786,5.789,5.788,5.788,0,0,1,5.786-5.789ZM108.6,110.667a3.166,3.166,0,1,1-3.165,3.165,3.164,3.164,0,0,1,3.165-3.165Z"/><text font-family="SegoeUI, Segoe UI" font-size="16" transform="translate(471.318 140)">Gizmos</text><rect width="64.999" height="55.584" x="443.124" y="155.823" fill="#fff"/><polygon fill="#c2c2c2" points="508.777 160.602 441.264 160.602 446.753 166.515 508.777 166.515 508.777 160.602"/><rect width="10.287" height="55.584" x="508.122" y="155.823" fill="#939393"/><rect width="75.832" height="14.268" x="437.707" y="148.333" fill="#fff"/><rect width="10.287" height="14.268" x="512.237" y="148.333" fill="#939393"/><text font-family="SegoeUI, Segoe UI" font-size="16" transform="translate(459.594 184)">1.0.0<tspan x="0" y="19.2">3.0.0</tspan></text><path fill="#004880" d="M445.356,114.647a8.931,8.931,0,0,0-8.949,8.954v9.679a8.932,8.932,0,0,0,8.949,8.955h9.673a8.933,8.933,0,0,0,8.95-8.955V123.6a8.932,8.932,0,0,0-8.95-8.954Zm-1.9,4.7a3.347,3.347,0,0,1,0,6.694h0a3.347,3.347,0,0,1,0-6.694Zm10.667,8.141a5.789,5.789,0,1,1-5.786,5.789,5.788,5.788,0,0,1,5.786-5.789ZM434.6,110.667a3.166,3.166,0,1,1-3.165,3.165,3.164,3.164,0,0,1,3.165-3.165Z"/><path fill="#b4a0ff" d="M180,347H443a11,11,0,0,1,11,11V610a0,0,0,0,1,0,0H191a11,11,0,0,1-11-11V347A0,0,0,0,1,180,347Z"/><path fill="#c7b8ff" d="M454,386.444V358a11,11,0,0,0-11-11H180v39.444Z"/><text font-family="SegoeUI, Segoe UI" font-size="24" transform="translate(229.074 373)">Adventure<tspan x="109.852" y="0" letter-spacing="-.039em">W</tspan><tspan x="131.332" y="0">orks</tspan></text><text font-family="SegoeUI, Segoe UI" font-size="16" transform="translate(369.064 459)">Gadgets</text><rect width="64.999" height="55.584" x="341.124" y="474.823" fill="#fff"/><polygon fill="#c2c2c2" points="406.777 479.602 339.264 479.602 344.753 485.515 406.777 485.515 406.777 479.602"/><rect width="10.287" height="55.584" x="406.122" y="474.823" fill="#737373"/><rect width="75.832" height="14.268" x="335.707" y="467.333" fill="#fff"/><rect width="10.287" height="14.268" x="410.237" y="467.333" fill="#737373"/><text font-family="SegoeUI, Segoe UI" font-size="16" transform="translate(357.594 503)">1.0.0<tspan x="0" y="19.2">2.0.0</tspan></text><path fill="#004880" d="M343.356,433.647a8.931,8.931,0,0,0-8.949,8.954v9.679a8.932,8.932,0,0,0,8.949,8.955h9.673a8.933,8.933,0,0,0,8.95-8.955V442.6a8.932,8.932,0,0,0-8.95-8.954Zm-1.9,4.7a3.347,3.347,0,0,1,0,6.694h0a3.347,3.347,0,0,1,0-6.694Zm10.667,8.141a5.789,5.789,0,1,1-5.786,5.789,5.788,5.788,0,0,1,5.786-5.789ZM332.6,429.667a3.166,3.166,0,1,1-3.165,3.165,3.164,3.164,0,0,1,3.165-3.165Z"/><text font-family="SegoeUI, Segoe UI" font-size="16" transform="translate(249.044 459)">Things</text><rect width="64.999" height="55.584" x="220.124" y="474.823" fill="#fff"/><polygon fill="#c2c2c2" points="285.777 479.602 218.264 479.602 223.753 485.515 285.777 485.515 285.777 479.602"/><rect width="10.287" height="55.584" x="285.122" y="474.823" fill="#737373"/><rect width="75.832" height="14.268" x="214.707" y="467.333" fill="#fff"/><rect width="10.287" height="14.268" x="289.237" y="467.333" fill="#737373"/><text font-family="SegoeUI, Segoe UI" font-size="16" transform="translate(236.594 503)">1.0.0</text><path fill="#004880" d="M222.356,433.647a8.931,8.931,0,0,0-8.949,8.954v9.679a8.932,8.932,0,0,0,8.949,8.955h9.673a8.933,8.933,0,0,0,8.95-8.955V442.6a8.932,8.932,0,0,0-8.95-8.954Zm-1.9,4.7a3.347,3.347,0,0,1,0,6.694h0a3.347,3.347,0,0,1,0-6.694Zm10.667,8.141a5.789,5.789,0,1,1-5.786,5.789,5.788,5.788,0,0,1,5.786-5.789ZM211.6,429.667a3.166,3.166,0,1,1-3.165,3.165,3.164,3.164,0,0,1,3.165-3.165Z"/></svg>