<svg xmlns="http://www.w3.org/2000/svg" viewBox="0 0 636 636"><title>blog-package-upstream-diagram-4</title><line x1="388.5" x2="388.5" y1="348" y2="302.253" fill="none" stroke="#004880" stroke-miterlimit="10" stroke-width="3"/><polygon fill="#004880" points="400.77 312.194 398.572 314.24 388.503 303.405 378.431 314.24 376.233 312.194 388.503 299 400.77 312.194"/><line x1="344" x2="295.253" y1="198.5" y2="198.5" fill="none" stroke="#004880" stroke-miterlimit="10" stroke-width="3"/><polygon fill="#004880" points="305.194 186.23 307.24 188.428 296.405 198.497 307.24 208.569 305.194 210.767 292 198.497 305.194 186.23"/><path fill="#cbe247" d="M343,33H606a11,11,0,0,1,11,11V297a0,0,0,0,1,0,0H354a11,11,0,0,1-11-11V33A0,0,0,0,1,343,33Z"/><path fill="#b0cdda" d="M17,33H280a11,11,0,0,1,11,11V297a0,0,0,0,1,0,0H28a11,11,0,0,1-11-11V33A0,0,0,0,1,17,33Z"/><path fill="#cadee6" d="M291,71.333V44a11,11,0,0,0-11-11H17V71.333Z"/><path fill="#e6f26d" d="M617,71.333V44a11,11,0,0,0-11-11H343V71.333Z"/><text font-family="SegoeUI, Segoe UI" font-size="24" transform="translate(106.906 59)"><tspan letter-spacing="-.034em">F</tspan><tspan x="10.898" y="0">abrikam</tspan></text><text font-family="SegoeUI, Segoe UI" font-size="24" transform="translate(434.527 59)">Contoso</text><text font-family="SegoeUI, Segoe UI" font-size="16" transform="translate(85.212 109)">Widgets</text><rect width="65" height="56" x="57" y="125" fill="#fff"/><polygon fill="#c2c2c2" points="123 130 54.499 130 60.069 136 123 136 123 130"/><rect width="10" height="56" x="122" y="125" fill="#939393"/><rect width="76" height="14" x="52" y="117" fill="#fff"/><rect width="10" height="14" x="126" y="117" fill="#939393"/><text font-family="SegoeUI, Segoe UI" font-size="16" transform="translate(73.594 153)">1.0.0<tspan x="0" y="19.2">2.0.0</tspan></text><path fill="#004880" d="M50,91.915V102.05A8.95,8.95,0,0,0,58.95,111h10.1A8.95,8.95,0,0,0,78,102.05V91.955A8.955,8.955,0,0,0,69.045,83H58.95A8.917,8.917,0,0,0,50,91.915Zm7.458-3.565a3.347,3.347,0,0,1,0,6.694h0a3.347,3.347,0,0,1,0-6.694Zm10.667,8.141a5.789,5.789,0,1,1-5.786,5.789,5.788,5.788,0,0,1,5.786-5.789ZM48.6,79.667a3.166,3.166,0,1,1-3.165,3.165A3.164,3.164,0,0,1,48.6,79.667Z"/><path fill="#b4a0ff" d="M180,347H443a11,11,0,0,1,11,11V610a0,0,0,0,1,0,0H191a11,11,0,0,1-11-11V347A0,0,0,0,1,180,347Z"/><path fill="#c7b8ff" d="M454,386.444V358a11,11,0,0,0-11-11H180v39.444Z"/><text font-family="SegoeUI, Segoe UI" font-size="24" transform="translate(229.074 373)">Adventure<tspan x="109.852" y="0" letter-spacing="-.039em">W</tspan><tspan x="131.332" y="0">orks</tspan></text><text font-family="SegoeUI, Segoe UI" font-size="16" transform="translate(375.064 457.435)">Gadgets</text><rect width="65" height="56" x="346" y="473" fill="#fff"/><polygon fill="#c2c2c2" points="412 478 343.499 478 349.069 484 412 484 412 478"/><rect width="10" height="56" x="411" y="473" fill="#737373"/><rect width="76" height="14" x="341" y="466" fill="#fff"/><rect width="10" height="14" x="415" y="466" fill="#737373"/><text font-family="SegoeUI, Segoe UI" font-size="16" transform="translate(362.594 501.435)">1.0.0<tspan x="0" y="19.2">2.0.0</tspan></text><path fill="#004880" d="M339,440.915V451.05a8.95,8.95,0,0,0,8.95,8.95h10.1a8.95,8.95,0,0,0,8.95-8.95v-10.1A8.955,8.955,0,0,0,358.045,432h-10.1A8.917,8.917,0,0,0,339,440.915Zm7.458-4.13a3.347,3.347,0,0,1,0,6.693h0a3.347,3.347,0,0,1,0-6.693Zm10.667,8.14a5.789,5.789,0,1,1-5.786,5.789,5.788,5.788,0,0,1,5.786-5.789ZM337.6,428.1a3.166,3.166,0,1,1-3.165,3.166A3.165,3.165,0,0,1,337.6,428.1Z"/><text font-family="SegoeUI, Segoe UI" font-size="16" transform="translate(239.044 457.435)">Things</text><rect width="65" height="56" x="210" y="473" fill="#fff"/><polygon fill="#c2c2c2" points="276 478 207.499 478 213.069 484 276 484 276 478"/><rect width="10" height="56" x="275" y="473" fill="#737373"/><rect width="76" height="14" x="205" y="466" fill="#fff"/><rect width="10" height="14" x="279" y="466" fill="#737373"/><text font-family="SegoeUI, Segoe UI" font-size="16" transform="translate(226.594 501.435)">1.0.0</text><path fill="#004880" d="M203,440.915V451.05a8.95,8.95,0,0,0,8.95,8.95h10.1a8.95,8.95,0,0,0,8.95-8.95v-10.1A8.955,8.955,0,0,0,222.045,432H211.95A8.917,8.917,0,0,0,203,440.915Zm7.458-4.13a3.347,3.347,0,0,1,0,6.693h0a3.347,3.347,0,0,1,0-6.693Zm10.667,8.14a5.789,5.789,0,1,1-5.786,5.789,5.788,5.788,0,0,1,5.786-5.789ZM201.6,428.1a3.166,3.166,0,1,1-3.165,3.166A3.165,3.165,0,0,1,201.6,428.1Z"/><text font-family="SegoeUI, Segoe UI" font-size="16" transform="translate(190.594 150.435)">3.0.0</text><text font-family="SegoeUI, Segoe UI" font-size="16" transform="translate(203.318 107.435)">Gizmos</text><path fill="#004880" d="M176.356,82.081a8.932,8.932,0,0,0-8.949,8.955v9.678a8.932,8.932,0,0,0,8.949,8.955h9.673a8.933,8.933,0,0,0,8.95-8.955V91.036a8.933,8.933,0,0,0-8.95-8.955Zm-1.9,4.7a3.347,3.347,0,0,1,0,6.693h0a3.347,3.347,0,0,1,0-6.693Zm10.667,8.14a5.789,5.789,0,1,1-5.786,5.789,5.788,5.788,0,0,1,5.786-5.789ZM165.6,78.1a3.166,3.166,0,1,1-3.165,3.166A3.165,3.165,0,0,1,165.6,78.1Z"/><rect width="2" height="2" x="169" y="124" fill="#447995"/><rect width="2" height="2" x="169" y="120" fill="#447995"/><rect width="2" height="2" x="253" y="116" fill="#447995"/><rect width="2" height="2" x="249" y="116" fill="#447995"/><rect width="2" height="2" x="245" y="116" fill="#447995"/><rect width="2" height="2" x="241" y="116" fill="#447995"/><rect width="2" height="2" x="237" y="116" fill="#447995"/><rect width="2" height="2" x="233" y="116" fill="#447995"/><rect width="2" height="2" x="229" y="116" fill="#447995"/><rect width="2" height="2" x="225" y="116" fill="#447995"/><rect width="2" height="2" x="221" y="116" fill="#447995"/><rect width="2" height="2" x="217" y="116" fill="#447995"/><rect width="2" height="2" x="213" y="116" fill="#447995"/><rect width="2" height="2" x="209" y="116" fill="#447995"/><rect width="2" height="2" x="205" y="116" fill="#447995"/><rect width="2" height="2" x="201" y="116" fill="#447995"/><rect width="2" height="2" x="197" y="116" fill="#447995"/><rect width="2" height="2" x="193" y="116" fill="#447995"/><rect width="2" height="2" x="189" y="116" fill="#447995"/><rect width="2" height="2" x="185" y="116" fill="#447995"/><rect width="2" height="2" x="181" y="116" fill="#447995"/><rect width="2" height="2" x="177" y="116" fill="#447995"/><rect width="2" height="2" x="173" y="116" fill="#447995"/><rect width="2" height="2" x="253" y="128" fill="#447995"/><rect width="2" height="2" x="253" y="124" fill="#447995"/><rect width="2" height="2" x="253" y="120" fill="#447995"/><rect width="2" height="2" x="241" y="124" fill="#447995"/><rect width="2" height="2" x="241" y="120" fill="#447995"/><rect width="2" height="2" x="249" y="128" fill="#447995"/><rect width="2" height="2" x="245" y="128" fill="#447995"/><rect width="2" height="2" x="241" y="128" fill="#447995"/><rect width="2" height="2" x="237" y="128" fill="#447995"/><rect width="2" height="2" x="233" y="128" fill="#447995"/><rect width="2" height="2" x="229" y="128" fill="#447995"/><rect width="2" height="2" x="225" y="128" fill="#447995"/><rect width="2" height="2" x="221" y="128" fill="#447995"/><rect width="2" height="2" x="217" y="128" fill="#447995"/><rect width="2" height="2" x="213" y="128" fill="#447995"/><rect width="2" height="2" x="209" y="128" fill="#447995"/><rect width="2" height="2" x="205" y="128" fill="#447995"/><rect width="2" height="2" x="201" y="128" fill="#447995"/><rect width="2" height="2" x="197" y="128" fill="#447995"/><rect width="2" height="2" x="193" y="128" fill="#447995"/><rect width="2" height="2" x="189" y="128" fill="#447995"/><rect width="2" height="2" x="185" y="128" fill="#447995"/><rect width="2" height="2" x="181" y="128" fill="#447995"/><rect width="2" height="2" x="177" y="128" fill="#447995"/><rect width="2" height="2" x="173" y="128" fill="#447995"/><rect width="2" height="2" x="169" y="128" fill="#447995"/><rect width="2" height="2" x="169" y="124" fill="#447995"/><rect width="2" height="2" x="169" y="120" fill="#447995"/><polygon fill="#447995" points="171 116 169 116 169 117.624 169 117.897 169 118 170.022 118 170.022 117.999 171 117.999 171 116"/><rect width="2" height="2" x="248" y="179" fill="#447995"/><rect width="2" height="2" x="244" y="179" fill="#447995"/><rect width="2" height="2" x="240" y="179" fill="#447995"/><rect width="2" height="2" x="236" y="179" fill="#447995"/><rect width="2" height="2" x="232" y="179" fill="#447995"/><rect width="2" height="2" x="228" y="179" fill="#447995"/><rect width="2" height="2" x="224" y="179" fill="#447995"/><rect width="2" height="2" x="220" y="179" fill="#447995"/><rect width="2" height="2" x="216" y="179" fill="#447995"/><rect width="2" height="2" x="212" y="179" fill="#447995"/><rect width="2" height="2" x="208" y="179" fill="#447995"/><rect width="2" height="2" x="204" y="179" fill="#447995"/><rect width="2" height="2" x="200" y="179" fill="#447995"/><rect width="2" height="2" x="196" y="179" fill="#447995"/><rect width="2" height="2" x="192" y="179" fill="#447995"/><rect width="2" height="2" x="188" y="179" fill="#447995"/><rect width="2" height="2" x="184" y="179" fill="#447995"/><rect width="2" height="2" x="180" y="179" fill="#447995"/><rect width="2" height="2" x="176" y="179" fill="#447995"/><path fill="#447995" d="M178,169h-2v-2h2Zm0-4h-2v-2h2Zm0-4h-2v-2h2Zm0-4h-2v-2h2Zm0-4h-2v-2h2Zm0-4h-2v-2h2Zm0-4h-2v-2h2Zm0-4h-2v-2h2Zm0-4h-2v-2h2Zm0-4h-2v-2h2Z"/><rect width="2" height="2" x="176" y="175" fill="#447995"/><rect width="2" height="2" x="176" y="171" fill="#447995"/><polygon fill="#447995" points="178 167 176 167 176 168.624 176 168.897 176 169 177.022 169 177.022 168.999 178 168.999 178 167"/><path fill="#447995" d="M238,169h-2v-2h2Zm0-4h-2v-2h2Zm0-4h-2v-2h2Zm0-4h-2v-2h2Zm0-4h-2v-2h2Zm0-4h-2v-2h2Zm0-4h-2v-2h2Zm0-4h-2v-2h2Zm0-4h-2v-2h2Zm0-4h-2v-2h2Z"/><rect width="2" height="2" x="236" y="175" fill="#447995"/><rect width="2" height="2" x="236" y="171" fill="#447995"/><polygon fill="#447995" points="238 167 236 167 236 168.624 236 168.897 236 169 237.022 169 237.022 168.999 238 168.999 238 167"/><path fill="#447995" d="M250,169h-2v-2h2Zm0-4h-2v-2h2Zm0-4h-2v-2h2Zm0-4h-2v-2h2Zm0-4h-2v-2h2Zm0-4h-2v-2h2Zm0-4h-2v-2h2Zm0-4h-2v-2h2Zm0-4h-2v-2h2Zm0-4h-2v-2h2Z"/><rect width="2" height="2" x="248" y="175" fill="#447995"/><rect width="2" height="2" x="248" y="171" fill="#447995"/><polygon fill="#447995" points="250 167 248 167 248 168.624 248 168.897 248 169 249.022 169 249.022 168.999 250 168.999 250 167"/><text font-family="SegoeUI, Segoe UI" font-size="16" transform="translate(190.594 257.435)">2.0.0</text><text font-family="SegoeUI, Segoe UI" font-size="16" transform="translate(202.064 214.435)">Gadgets</text><path fill="#004880" d="M176.356,189.081a8.932,8.932,0,0,0-8.949,8.955v9.678a8.932,8.932,0,0,0,8.949,8.955h9.673a8.933,8.933,0,0,0,8.95-8.955v-9.678a8.933,8.933,0,0,0-8.95-8.955Zm-1.9,4.7a3.347,3.347,0,0,1,0,6.693h0a3.347,3.347,0,0,1,0-6.693Zm10.667,8.14a5.789,5.789,0,1,1-5.786,5.789,5.788,5.788,0,0,1,5.786-5.789ZM165.6,185.1a3.166,3.166,0,1,1-3.165,3.166A3.165,3.165,0,0,1,165.6,185.1Z"/><rect width="2" height="2" x="169" y="231" fill="#447995"/><rect width="2" height="2" x="169" y="227" fill="#447995"/><rect width="2" height="2" x="253" y="223" fill="#447995"/><rect width="2" height="2" x="249" y="223" fill="#447995"/><rect width="2" height="2" x="245" y="223" fill="#447995"/><rect width="2" height="2" x="241" y="223" fill="#447995"/><rect width="2" height="2" x="237" y="223" fill="#447995"/><rect width="2" height="2" x="233" y="223" fill="#447995"/><rect width="2" height="2" x="229" y="223" fill="#447995"/><rect width="2" height="2" x="225" y="223" fill="#447995"/><rect width="2" height="2" x="221" y="223" fill="#447995"/><rect width="2" height="2" x="217" y="223" fill="#447995"/><rect width="2" height="2" x="213" y="223" fill="#447995"/><rect width="2" height="2" x="209" y="223" fill="#447995"/><rect width="2" height="2" x="205" y="223" fill="#447995"/><rect width="2" height="2" x="201" y="223" fill="#447995"/><rect width="2" height="2" x="197" y="223" fill="#447995"/><rect width="2" height="2" x="193" y="223" fill="#447995"/><rect width="2" height="2" x="189" y="223" fill="#447995"/><rect width="2" height="2" x="185" y="223" fill="#447995"/><rect width="2" height="2" x="181" y="223" fill="#447995"/><rect width="2" height="2" x="177" y="223" fill="#447995"/><rect width="2" height="2" x="173" y="223" fill="#447995"/><rect width="2" height="2" x="253" y="235" fill="#447995"/><rect width="2" height="2" x="253" y="231" fill="#447995"/><rect width="2" height="2" x="253" y="227" fill="#447995"/><rect width="2" height="2" x="241" y="231" fill="#447995"/><rect width="2" height="2" x="241" y="227" fill="#447995"/><rect width="2" height="2" x="249" y="235" fill="#447995"/><rect width="2" height="2" x="245" y="235" fill="#447995"/><rect width="2" height="2" x="241" y="235" fill="#447995"/><rect width="2" height="2" x="237" y="235" fill="#447995"/><rect width="2" height="2" x="233" y="235" fill="#447995"/><rect width="2" height="2" x="229" y="235" fill="#447995"/><rect width="2" height="2" x="225" y="235" fill="#447995"/><rect width="2" height="2" x="221" y="235" fill="#447995"/><rect width="2" height="2" x="217" y="235" fill="#447995"/><rect width="2" height="2" x="213" y="235" fill="#447995"/><rect width="2" height="2" x="209" y="235" fill="#447995"/><rect width="2" height="2" x="205" y="235" fill="#447995"/><rect width="2" height="2" x="201" y="235" fill="#447995"/><rect width="2" height="2" x="197" y="235" fill="#447995"/><rect width="2" height="2" x="193" y="235" fill="#447995"/><rect width="2" height="2" x="189" y="235" fill="#447995"/><rect width="2" height="2" x="185" y="235" fill="#447995"/><rect width="2" height="2" x="181" y="235" fill="#447995"/><rect width="2" height="2" x="177" y="235" fill="#447995"/><rect width="2" height="2" x="173" y="235" fill="#447995"/><rect width="2" height="2" x="169" y="235" fill="#447995"/><rect width="2" height="2" x="169" y="231" fill="#447995"/><rect width="2" height="2" x="169" y="227" fill="#447995"/><polygon fill="#447995" points="171 223 169 223 169 224.624 169 224.897 169 225 170.022 225 170.022 224.999 171 224.999 171 223"/><rect width="2" height="2" x="248" y="286" fill="#447995"/><rect width="2" height="2" x="244" y="286" fill="#447995"/><rect width="2" height="2" x="240" y="286" fill="#447995"/><rect width="2" height="2" x="236" y="286" fill="#447995"/><rect width="2" height="2" x="232" y="286" fill="#447995"/><rect width="2" height="2" x="228" y="286" fill="#447995"/><rect width="2" height="2" x="224" y="286" fill="#447995"/><rect width="2" height="2" x="220" y="286" fill="#447995"/><rect width="2" height="2" x="216" y="286" fill="#447995"/><rect width="2" height="2" x="212" y="286" fill="#447995"/><rect width="2" height="2" x="208" y="286" fill="#447995"/><rect width="2" height="2" x="204" y="286" fill="#447995"/><rect width="2" height="2" x="200" y="286" fill="#447995"/><rect width="2" height="2" x="196" y="286" fill="#447995"/><rect width="2" height="2" x="192" y="286" fill="#447995"/><rect width="2" height="2" x="188" y="286" fill="#447995"/><rect width="2" height="2" x="184" y="286" fill="#447995"/><rect width="2" height="2" x="180" y="286" fill="#447995"/><rect width="2" height="2" x="176" y="286" fill="#447995"/><path fill="#447995" d="M178,276h-2v-2h2Zm0-4h-2v-2h2Zm0-4h-2v-2h2Zm0-4h-2v-2h2Zm0-4h-2v-2h2Zm0-4h-2v-2h2Zm0-4h-2v-2h2Zm0-4h-2v-2h2Zm0-4h-2v-2h2Zm0-4h-2v-2h2Z"/><rect width="2" height="2" x="176" y="282" fill="#447995"/><rect width="2" height="2" x="176" y="278" fill="#447995"/><polygon fill="#447995" points="178 274 176 274 176 275.624 176 275.897 176 276 177.022 276 177.022 275.999 178 275.999 178 274"/><path fill="#447995" d="M238,276h-2v-2h2Zm0-4h-2v-2h2Zm0-4h-2v-2h2Zm0-4h-2v-2h2Zm0-4h-2v-2h2Zm0-4h-2v-2h2Zm0-4h-2v-2h2Zm0-4h-2v-2h2Zm0-4h-2v-2h2Zm0-4h-2v-2h2Z"/><rect width="2" height="2" x="236" y="282" fill="#447995"/><rect width="2" height="2" x="236" y="278" fill="#447995"/><polygon fill="#447995" points="238 274 236 274 236 275.624 236 275.897 236 276 237.022 276 237.022 275.999 238 275.999 238 274"/><path fill="#447995" d="M250,276h-2v-2h2Zm0-4h-2v-2h2Zm0-4h-2v-2h2Zm0-4h-2v-2h2Zm0-4h-2v-2h2Zm0-4h-2v-2h2Zm0-4h-2v-2h2Zm0-4h-2v-2h2Zm0-4h-2v-2h2Zm0-4h-2v-2h2Z"/><rect width="2" height="2" x="248" y="282" fill="#447995"/><rect width="2" height="2" x="248" y="278" fill="#447995"/><polygon fill="#447995" points="250 274 248 274 248 275.624 248 275.897 248 276 249.022 276 249.022 275.999 250 275.999 250 274"/><rect width="2" height="2" x="51" y="231" fill="#447995"/><rect width="2" height="2" x="51" y="227" fill="#447995"/><rect width="2" height="2" x="135" y="223" fill="#447995"/><rect width="2" height="2" x="131" y="223" fill="#447995"/><rect width="2" height="2" x="127" y="223" fill="#447995"/><rect width="2" height="2" x="123" y="223" fill="#447995"/><rect width="2" height="2" x="119" y="223" fill="#447995"/><rect width="2" height="2" x="115" y="223" fill="#447995"/><rect width="2" height="2" x="111" y="223" fill="#447995"/><rect width="2" height="2" x="107" y="223" fill="#447995"/><rect width="2" height="2" x="103" y="223" fill="#447995"/><rect width="2" height="2" x="99" y="223" fill="#447995"/><rect width="2" height="2" x="95" y="223" fill="#447995"/><rect width="2" height="2" x="91" y="223" fill="#447995"/><rect width="2" height="2" x="87" y="223" fill="#447995"/><rect width="2" height="2" x="83" y="223" fill="#447995"/><rect width="2" height="2" x="79" y="223" fill="#447995"/><rect width="2" height="2" x="75" y="223" fill="#447995"/><rect width="2" height="2" x="71" y="223" fill="#447995"/><rect width="2" height="2" x="67" y="223" fill="#447995"/><rect width="2" height="2" x="63" y="223" fill="#447995"/><rect width="2" height="2" x="59" y="223" fill="#447995"/><rect width="2" height="2" x="55" y="223" fill="#447995"/><rect width="2" height="2" x="135" y="235" fill="#447995"/><rect width="2" height="2" x="135" y="231" fill="#447995"/><rect width="2" height="2" x="135" y="227" fill="#447995"/><rect width="2" height="2" x="123" y="231" fill="#447995"/><rect width="2" height="2" x="123" y="227" fill="#447995"/><rect width="2" height="2" x="131" y="235" fill="#447995"/><rect width="2" height="2" x="127" y="235" fill="#447995"/><rect width="2" height="2" x="123" y="235" fill="#447995"/><rect width="2" height="2" x="119" y="235" fill="#447995"/><rect width="2" height="2" x="115" y="235" fill="#447995"/><rect width="2" height="2" x="111" y="235" fill="#447995"/><rect width="2" height="2" x="107" y="235" fill="#447995"/><rect width="2" height="2" x="103" y="235" fill="#447995"/><rect width="2" height="2" x="99" y="235" fill="#447995"/><rect width="2" height="2" x="95" y="235" fill="#447995"/><rect width="2" height="2" x="91" y="235" fill="#447995"/><rect width="2" height="2" x="87" y="235" fill="#447995"/><rect width="2" height="2" x="83" y="235" fill="#447995"/><rect width="2" height="2" x="79" y="235" fill="#447995"/><rect width="2" height="2" x="75" y="235" fill="#447995"/><rect width="2" height="2" x="71" y="235" fill="#447995"/><rect width="2" height="2" x="67" y="235" fill="#447995"/><rect width="2" height="2" x="63" y="235" fill="#447995"/><rect width="2" height="2" x="59" y="235" fill="#447995"/><rect width="2" height="2" x="55" y="235" fill="#447995"/><rect width="2" height="2" x="51" y="235" fill="#447995"/><rect width="2" height="2" x="51" y="231" fill="#447995"/><rect width="2" height="2" x="51" y="227" fill="#447995"/><polygon fill="#447995" points="53 223 51 223 51 224.624 51 224.897 51 225 52.022 225 52.022 224.999 53 224.999 53 223"/><rect width="2" height="2" x="130" y="286" fill="#447995"/><rect width="2" height="2" x="126" y="286" fill="#447995"/><rect width="2" height="2" x="122" y="286" fill="#447995"/><rect width="2" height="2" x="118" y="286" fill="#447995"/><rect width="2" height="2" x="114" y="286" fill="#447995"/><rect width="2" height="2" x="110" y="286" fill="#447995"/><rect width="2" height="2" x="106" y="286" fill="#447995"/><rect width="2" height="2" x="102" y="286" fill="#447995"/><rect width="2" height="2" x="98" y="286" fill="#447995"/><rect width="2" height="2" x="94" y="286" fill="#447995"/><rect width="2" height="2" x="90" y="286" fill="#447995"/><rect width="2" height="2" x="86" y="286" fill="#447995"/><rect width="2" height="2" x="82" y="286" fill="#447995"/><rect width="2" height="2" x="78" y="286" fill="#447995"/><rect width="2" height="2" x="74" y="286" fill="#447995"/><rect width="2" height="2" x="70" y="286" fill="#447995"/><rect width="2" height="2" x="66" y="286" fill="#447995"/><rect width="2" height="2" x="62" y="286" fill="#447995"/><rect width="2" height="2" x="58" y="286" fill="#447995"/><path fill="#447995" d="M60,276H58v-2h2Zm0-4H58v-2h2Zm0-4H58v-2h2Zm0-4H58v-2h2Zm0-4H58v-2h2Zm0-4H58v-2h2Zm0-4H58v-2h2Zm0-4H58v-2h2Zm0-4H58v-2h2Zm0-4H58v-2h2Z"/><rect width="2" height="2" x="58" y="282" fill="#447995"/><rect width="2" height="2" x="58" y="278" fill="#447995"/><polygon fill="#447995" points="60 274 58 274 58 275.624 58 275.897 58 276 59.022 276 59.022 275.999 60 275.999 60 274"/><path fill="#447995" d="M120,276h-2v-2h2Zm0-4h-2v-2h2Zm0-4h-2v-2h2Zm0-4h-2v-2h2Zm0-4h-2v-2h2Zm0-4h-2v-2h2Zm0-4h-2v-2h2Zm0-4h-2v-2h2Zm0-4h-2v-2h2Zm0-4h-2v-2h2Z"/><rect width="2" height="2" x="118" y="282" fill="#447995"/><rect width="2" height="2" x="118" y="278" fill="#447995"/><polygon fill="#447995" points="120 274 118 274 118 275.624 118 275.897 118 276 119.022 276 119.022 275.999 120 275.999 120 274"/><path fill="#447995" d="M132,276h-2v-2h2Zm0-4h-2v-2h2Zm0-4h-2v-2h2Zm0-4h-2v-2h2Zm0-4h-2v-2h2Zm0-4h-2v-2h2Zm0-4h-2v-2h2Zm0-4h-2v-2h2Zm0-4h-2v-2h2Zm0-4h-2v-2h2Z"/><rect width="2" height="2" x="130" y="282" fill="#447995"/><rect width="2" height="2" x="130" y="278" fill="#447995"/><polygon fill="#447995" points="132 274 130 274 130 275.624 130 275.897 130 276 131.022 276 131.022 275.999 132 275.999 132 274"/><line x1="259" x2="437" y1="246" y2="246" fill="none" stroke="#737373" stroke-dasharray="4 4" stroke-miterlimit="10" stroke-width="2"/><line x1="437" x2="255" y1="154" y2="154" fill="none" stroke="#737373" stroke-dasharray="4 4" stroke-miterlimit="10" stroke-width="2"/><path fill="none" stroke="#737373" stroke-dasharray="4 4" stroke-miterlimit="10" stroke-width="2" d="M201,500H125c-24,0-34-5-34-29V292"/><line x1="382" x2="382" y1="440" y2="404" fill="none" stroke="#737373" stroke-dasharray="4 4" stroke-miterlimit="10" stroke-width="2"/><text font-family="SegoeUI, Segoe UI" font-size="16" transform="translate(474.318 109.435)">Gizmos</text><rect width="64.999" height="55.584" x="446.124" y="125.258" fill="#fff"/><polygon fill="#c2c2c2" points="511.777 130.036 444.264 130.036 449.753 135.95 511.777 135.95 511.777 130.036"/><rect width="10" height="56" x="511" y="125" fill="#939393"/><rect width="76" height="14" x="441" y="118" fill="#fff"/><rect width="10" height="14" x="515" y="118" fill="#939393"/><text font-family="SegoeUI, Segoe UI" font-size="16" transform="translate(462.594 153.435)">1.0.0<tspan x="0" y="19.2">3.0.0</tspan></text><path fill="#004880" d="M448.356,84.081a8.932,8.932,0,0,0-8.949,8.955v9.678a8.932,8.932,0,0,0,8.949,8.955h9.673a8.933,8.933,0,0,0,8.95-8.955V93.036a8.933,8.933,0,0,0-8.95-8.955Zm-1.9,4.7a3.347,3.347,0,0,1,0,6.693h0a3.347,3.347,0,0,1,0-6.693Zm10.667,8.14a5.789,5.789,0,1,1-5.786,5.789,5.788,5.788,0,0,1,5.786-5.789ZM437.6,80.1a3.166,3.166,0,1,1-3.165,3.166A3.165,3.165,0,0,1,437.6,80.1Z"/><text font-family="SegoeUI, Segoe UI" font-size="16" transform="translate(474.064 215.435)">Gadgets</text><text font-family="SegoeUI, Segoe UI" font-size="16" transform="translate(463.594 259.435)">2.0.0</text><path fill="#004880" d="M449.356,190.081a8.932,8.932,0,0,0-8.949,8.955v9.678a8.932,8.932,0,0,0,8.949,8.955h9.673a8.933,8.933,0,0,0,8.95-8.955v-9.678a8.933,8.933,0,0,0-8.95-8.955Zm-1.9,4.7a3.347,3.347,0,0,1,0,6.693h0a3.347,3.347,0,0,1,0-6.693Zm10.667,8.14a5.789,5.789,0,1,1-5.786,5.789,5.788,5.788,0,0,1,5.786-5.789ZM438.6,186.1a3.166,3.166,0,1,1-3.165,3.166A3.165,3.165,0,0,1,438.6,186.1Z"/><rect width="2" height="2" x="439" y="231" fill="#107c10"/><rect width="2" height="2" x="439" y="227" fill="#107c10"/><rect width="2" height="2" x="523" y="223" fill="#107c10"/><rect width="2" height="2" x="519" y="223" fill="#107c10"/><rect width="2" height="2" x="515" y="223" fill="#107c10"/><rect width="2" height="2" x="511" y="223" fill="#107c10"/><rect width="2" height="2" x="507" y="223" fill="#107c10"/><rect width="2" height="2" x="503" y="223" fill="#107c10"/><rect width="2" height="2" x="499" y="223" fill="#107c10"/><rect width="2" height="2" x="495" y="223" fill="#107c10"/><rect width="2" height="2" x="491" y="223" fill="#107c10"/><rect width="2" height="2" x="487" y="223" fill="#107c10"/><rect width="2" height="2" x="483" y="223" fill="#107c10"/><rect width="2" height="2" x="479" y="223" fill="#107c10"/><rect width="2" height="2" x="475" y="223" fill="#107c10"/><rect width="2" height="2" x="471" y="223" fill="#107c10"/><rect width="2" height="2" x="467" y="223" fill="#107c10"/><rect width="2" height="2" x="463" y="223" fill="#107c10"/><rect width="2" height="2" x="459" y="223" fill="#107c10"/><rect width="2" height="2" x="455" y="223" fill="#107c10"/><rect width="2" height="2" x="451" y="223" fill="#107c10"/><rect width="2" height="2" x="447" y="223" fill="#107c10"/><rect width="2" height="2" x="443" y="223" fill="#107c10"/><rect width="2" height="2" x="523" y="235" fill="#107c10"/><rect width="2" height="2" x="523" y="231" fill="#107c10"/><rect width="2" height="2" x="523" y="227" fill="#107c10"/><rect width="2" height="2" x="511" y="231" fill="#107c10"/><rect width="2" height="2" x="511" y="227" fill="#107c10"/><rect width="2" height="2" x="519" y="235" fill="#107c10"/><rect width="2" height="2" x="515" y="235" fill="#107c10"/><rect width="2" height="2" x="511" y="235" fill="#107c10"/><rect width="2" height="2" x="507" y="235" fill="#107c10"/><rect width="2" height="2" x="503" y="235" fill="#107c10"/><rect width="2" height="2" x="499" y="235" fill="#107c10"/><rect width="2" height="2" x="495" y="235" fill="#107c10"/><rect width="2" height="2" x="491" y="235" fill="#107c10"/><rect width="2" height="2" x="487" y="235" fill="#107c10"/><rect width="2" height="2" x="483" y="235" fill="#107c10"/><rect width="2" height="2" x="479" y="235" fill="#107c10"/><rect width="2" height="2" x="475" y="235" fill="#107c10"/><rect width="2" height="2" x="471" y="235" fill="#107c10"/><rect width="2" height="2" x="467" y="235" fill="#107c10"/><rect width="2" height="2" x="463" y="235" fill="#107c10"/><rect width="2" height="2" x="459" y="235" fill="#107c10"/><rect width="2" height="2" x="455" y="235" fill="#107c10"/><rect width="2" height="2" x="451" y="235" fill="#107c10"/><rect width="2" height="2" x="447" y="235" fill="#107c10"/><rect width="2" height="2" x="443" y="235" fill="#107c10"/><rect width="2" height="2" x="439" y="235" fill="#107c10"/><rect width="2" height="2" x="439" y="231" fill="#107c10"/><rect width="2" height="2" x="439" y="227" fill="#107c10"/><polygon fill="#107c10" points="441 223 439 223 439 224.624 439 224.897 439 225 440.022 225 440.022 224.999 441 224.999 441 223"/><rect width="2" height="2" x="518" y="286" fill="#107c10"/><rect width="2" height="2" x="514" y="286" fill="#107c10"/><rect width="2" height="2" x="510" y="286" fill="#107c10"/><rect width="2" height="2" x="506" y="286" fill="#107c10"/><rect width="2" height="2" x="502" y="286" fill="#107c10"/><rect width="2" height="2" x="498" y="286" fill="#107c10"/><rect width="2" height="2" x="494" y="286" fill="#107c10"/><rect width="2" height="2" x="490" y="286" fill="#107c10"/><rect width="2" height="2" x="486" y="286" fill="#107c10"/><rect width="2" height="2" x="482" y="286" fill="#107c10"/><rect width="2" height="2" x="478" y="286" fill="#107c10"/><rect width="2" height="2" x="474" y="286" fill="#107c10"/><rect width="2" height="2" x="470" y="286" fill="#107c10"/><rect width="2" height="2" x="466" y="286" fill="#107c10"/><rect width="2" height="2" x="462" y="286" fill="#107c10"/><rect width="2" height="2" x="458" y="286" fill="#107c10"/><rect width="2" height="2" x="454" y="286" fill="#107c10"/><rect width="2" height="2" x="450" y="286" fill="#107c10"/><rect width="2" height="2" x="446" y="286" fill="#107c10"/><path fill="#107c10" d="M448,276h-2v-2h2Zm0-4h-2v-2h2Zm0-4h-2v-2h2Zm0-4h-2v-2h2Zm0-4h-2v-2h2Zm0-4h-2v-2h2Zm0-4h-2v-2h2Zm0-4h-2v-2h2Zm0-4h-2v-2h2Zm0-4h-2v-2h2Z"/><rect width="2" height="2" x="446" y="282" fill="#107c10"/><rect width="2" height="2" x="446" y="278" fill="#107c10"/><polygon fill="#107c10" points="448 274 446 274 446 275.624 446 275.897 446 276 447.022 276 447.022 275.999 448 275.999 448 274"/><path fill="#107c10" d="M508,276h-2v-2h2Zm0-4h-2v-2h2Zm0-4h-2v-2h2Zm0-4h-2v-2h2Zm0-4h-2v-2h2Zm0-4h-2v-2h2Zm0-4h-2v-2h2Zm0-4h-2v-2h2Zm0-4h-2v-2h2Zm0-4h-2v-2h2Z"/><rect width="2" height="2" x="506" y="282" fill="#107c10"/><rect width="2" height="2" x="506" y="278" fill="#107c10"/><polygon fill="#107c10" points="508 274 506 274 506 275.624 506 275.897 506 276 507.022 276 507.022 275.999 508 275.999 508 274"/><path fill="#107c10" d="M520,276h-2v-2h2Zm0-4h-2v-2h2Zm0-4h-2v-2h2Zm0-4h-2v-2h2Zm0-4h-2v-2h2Zm0-4h-2v-2h2Zm0-4h-2v-2h2Zm0-4h-2v-2h2Zm0-4h-2v-2h2Zm0-4h-2v-2h2Z"/><rect width="2" height="2" x="518" y="282" fill="#107c10"/><rect width="2" height="2" x="518" y="278" fill="#107c10"/><polygon fill="#107c10" points="520 274 518 274 518 275.624 518 275.897 518 276 519.022 276 519.022 275.999 520 275.999 520 274"/><path fill="none" stroke="#737373" stroke-dasharray="4 4" stroke-miterlimit="10" stroke-width="2" d="M211,313V292"/><path fill="none" stroke="#737373" stroke-dasharray="4 4" stroke-miterlimit="10" stroke-width="2" d="M474,292v87c0,17-8,25-26,25H238c-21,0-27-14-27-28V353"/><line x1="24" x2="63.747" y1="509.321" y2="509.321" fill="none" stroke="#004880" stroke-miterlimit="10" stroke-width="3"/><polygon fill="#004880" points="53.806 521.591 51.76 519.393 62.595 509.324 51.76 499.252 53.806 497.055 67 509.324 53.806 521.591"/><text font-family="SegoeUI, Segoe UI" font-size="16" transform="translate(26.333 540.435)">Upstream source</text><line x1="24" x2="68" y1="576.5" y2="576.5" fill="none" stroke="#737373" stroke-dasharray="4 4" stroke-miterlimit="10" stroke-width="2"/><text font-family="SegoeUI, Segoe UI" font-size="16" transform="translate(26.333 602.435)">Feed link</text><polygon fill="#a80000" points="224.043 320.032 221.01 317 211 327.01 200.99 317 197.957 320.032 207.968 330.043 197.957 340.053 200.99 343.086 211 333.075 221.01 343.086 224.043 340.053 214.032 330.043 224.043 320.032"/><polygon fill="#a80000" points="102.043 252.032 99.01 249 89 259.01 78.99 249 75.957 252.032 85.968 262.043 75.957 272.053 78.99 275.086 89 265.075 99.01 275.086 102.043 272.053 92.032 262.043 102.043 252.032"/></svg>